<?xml version="1.0" encoding="utf-8"?>
<!-- Generator: Adobe Illustrator 22.0.1, SVG Export Plug-In . SVG Version: 6.00 Build 0)  -->
<svg version="1.1" id="Layer_1" xmlns="http://www.w3.org/2000/svg" xmlns:xlink="http://www.w3.org/1999/xlink" x="0px" y="0px"
	 viewBox="0 0 692 287" style="enable-background:new 0 0 692 287;" xml:space="preserve">
<title>Artboard 10</title>
<path d="M416.9,116.2c2,0.2,5.7-4.2,11-13.2c-7.9-2.5-12.3-0.7-13.5,5.1C413.7,112.3,414.5,115,416.9,116.2"/>
<path d="M384.9,61.5h-2c0,0-10-6.1-50,72c0,0-18.2,39.4,1.5-10.2l1.4-4.4c37.7-73.7,32.6-79.3,32.6-79.3s0.6-9.6-7.2-5.2
	c-5.3,3.2-17.2,19.1-18,21.2l-17.8,29c-89.4,162.5-43.5,107.1-43.5,107.1l11.5-24.9l40-79.1C344.8,67.3,352,54.1,356,50.3v0.6
	l-1.3,5l-0.6,2.5c-57.9,131.2-37.7,119.1-37.7,119.1c1,0,5.1-7.1,12.4-21.4c10.9-21.4,44.7-90.3,50.9-81.4
	c-38.6,88.4-22,109.6-22,109.6s6.6,10.1,24.4-8.4c0.1,9.4,15.3,0,17.4-2.2l10.3-8.9c0.4-0.4,0.8-0.7,1.1-1.1
	c0.4,6.7,13.2,5.6,27.1-6c0,12.8,16.6-1.1,16.6-1.1c6.2-4.4,2-7.4,2-7.4c-16,15.1-4.9-4-0.5-11c4.7-5.6,7.1-12.7,6.9-19.9
	c0-3-4.1-2.6-7.5-0.3c-2.3-1.7-5.2-2.2-7.9-1.4c-14.5,6.9-31.4,20.2-35.9,41c-5,4.4-26.6,22.8-11-0.6c2.4-3.6,4.6-7.3,6.6-11.1
	c1.9-3.6,3.2-6.3,1.3-10l-2.2-0.8l-8.6,12.3c0,0-7.5,9.4-17.8,20.2l0,0l-2.2,2.4c-1.7,1.7-3.4,3.4-5.1,5.1c-4.1,3.7-7.5,5.8-8.2,3.6
	c-10.9-30.6,22.9-99.6,22.9-99.6c3.5-8,2.7-12,2.7-12C390.2,64.1,387.9,61.7,384.9,61.5 M426.9,157c-3.9,2.4-5.9,2.2-6.1-0.7
	c2.2-9,5.6-18.7,24.4-29.6l6.1-2.9l0.8,1.5C447.7,140.6,439.3,151.2,426.9,157"/>
<path d="M271.2,224.5c0.4,0.5,0.7,1.2,0.7,1.9c-0.2,3.9-2.3,7.6-5.5,9.8c-1.4,1-3,1.6-4.6,1.8c-1.8,0-3.2-1.5-3.2-3.3c0,0,0,0,0,0
	c0-0.1,0-0.2,0-0.3c0.1-1.1,0.3-2.2,0.6-3.3c1-3.9,3.3-11.7,3.5-13c0-0.4,0-0.9-1.4-1.2c-0.3-0.1-0.5-0.3-0.6-0.6
	c0-0.3,0.7-0.6,0.9-0.7c1.4-0.3,2.8-0.4,4.3-0.4c0.3,0,0.4,0.7,0.3,0.9c-1,2.9-2.5,8.2-3.2,10.8c0,0.2,0.3,0.4,0.4,0.2
	c2.9-2.8,5-3.5,6.4-3.5C270.2,223.6,270.8,223.9,271.2,224.5z M263.4,228.9c-1.3,1.7-2.1,3.7-2.3,5.9c0,0.8,1.4,1.5,1.7,1.5
	c0.8-0.1,1.6-0.5,2.2-1c2.2-2.2,3.6-5,3.9-8.1c0-0.5-0.2-1.4-1-1.4C266.5,225.7,264.5,227.6,263.4,228.9L263.4,228.9z"/>
<path d="M280.4,227.1c0.3,2.4,0.3,4.8,0,7.2c0,0.1,0.1,0.2,0.2,0.2l0,0c0.1,0,0.2-0.1,0.2-0.2l0,0c1.5-3.4,2.7-6.9,3.7-10.5
	c0.1-0.3,0.4-0.4,0.7-0.4c0.7,0,1.1,1.1,1.1,1.6c-1,2.9-2.1,5.7-3.4,8.4c-0.7,1.5-1.9,3.9-2.2,4.4c-1,2.3-2.5,4.4-4.3,6.1
	c-1,1-2.3,1.5-3.7,1.6c-1.3,0.1-2.4-0.9-2.5-2.2l0,0c0.1-0.9,0.7-1.6,1.6-1.7c0.3,0,0.6,0.2,0.8,0.4c0.5,0.5,1.3,1.3,1.6,1.3
	c1.1,0,2.6-1.3,3.5-4.6c0.3-1.3,0.5-2.7,0.5-4c0.1-2,0-3.9-0.3-5.9c-0.3-1.7-0.8-2.6-1.5-2.6s-1.2,0.6-1.9,1.8
	c-0.3,0.4-0.7,0.6-1.1,0.7c-0.1,0-0.3-0.2-0.3-0.5c0.2-1.6,2.2-4.7,4.4-4.7C278.8,223.6,280,224.9,280.4,227.1z"/>
<path d="M335.1,234.5V221c-1.6,2.5-3.6,4.8-6,6.6c-2.5,1.7-4.6,4.1-6,6.8L335.1,234.5z M322.1,236.7c-1.2,2.2-1.4,4.8-0.5,7.1h-5.3
	c-0.2-0.7-0.4-1.5-0.5-2.2V240c0.4-4.1,3.2-8,6.8-11.4c2.4-2.4,4.4-4.2,6.5-6c2.9-2.7,5.4-5.7,7.5-9c0.4-0.6,1.1-1,1.8-1v31h-3.3v-7
	L322.1,236.7z"/>
<path d="M308.7,239.6l2.7-21.9c0.6-3.1,2.4-5.9,5.1-7.6c-2.7-0.2-4,1.3-6.1,1.1h-17c-3.5-0.2-4.3,2.7-3.8,3.9
	c0.5-1.1,1.1-1.1,2.1-1.2h16c-1.2,1.5-2.1,3.3-2.4,5.3c0,0-1.8,18.9-1.5,24.8c0.3,11.9,9.3,18.3,13.5,17.8
	C311,256.3,307.8,248,308.7,239.6"/>
<path d="M365.5,234.5c-1.6-4.1-7.7-8.8-7.7-8.8c-3.9-3.3-6.8-7.5-8.6-12.3l-1.8-0.7v31h2.7v-21c1.5,4.1,8.6,9.4,8.6,9.4
	c3.4,3,6.1,6.7,8,10.8l1.7,0.8v-30.6h-2.9L365.5,234.5z"/>
<path d="M380.7,200.1c-2.2,0-4,1.7-4,3.9v0.1c0,2.2,1.8,3.9,4,3.9c2.2,0,3.9-1.8,3.9-4C384.5,201.9,382.8,200.2,380.7,200.1"/>
<path d="M461.5,240.9c0.4,0.4,0.7,0.6,1.1,0.9c2.5-1.7,4.5-4.1,5.5-6.9c2.4-4.8,1.9-10.5-1.2-14.8c-1.4-2.3-3.3-4.3-5.4-6
	c-0.6-0.5-1.2-1-1.8-1.3c-2.7,1.9-4.7,4.7-5.8,7.9c-1,4-0.5,8.2,1.3,11.9C456.7,235.8,458.8,238.7,461.5,240.9 M461.5,247.9
	L461.5,247.9c-4.1-3.5-7.5-7.8-10.1-12.6c-1.1-2.3-1.7-4.7-1.7-7.3v-0.7c0-2.6,0.6-5.2,1.7-7.6c2-4.3,5.4-7.1,9.4-10.3
	c0.2,0.4,0.4,0.8,0.7,1.1c2,2.2,8.5,6.6,11,11c1.1,2,1.7,4.3,1.8,6.6v0.5c-0.1,2.9-1,5.7-2.8,8.1c-1.9,2.7-4.1,5.2-6.6,7.3
	c1.7,1.6,3.3,3.4,4.7,5.4c1.6,2.4,2,5.4,1.3,8.2c-0.2,1.1-1.9,4.3-3.3,4.3c1.7-5.2-3.4-11-6.1-14"/>
<polygon points="437.9,232.1 426.6,232.1 426.6,213.1 422.4,213.1 422.4,242.9 426.6,242.9 426.6,234.5 437.9,234.5 437.9,243.2 
	442.2,243.2 442.2,213.1 437.9,213.1 "/>
<path d="M408.5,226.7c-3.9-1.6-7.6-3.6-11-6c-1.4-1.2-1.6-3.4-0.3-4.8c0,0,0,0,0,0c0.1-0.1,0.2-0.2,0.3-0.3c2-1.1,4.5-1.2,6.6-0.1
	c1.9,1.1,2.4,2.4,3.8,3.7c0.8,0.8,2,1.2,3.1,1c-0.6-2.1-1.8-4-3.5-5.3c-4-3-9.5-3-13.4,0c-3,3.3-1.9,6.4,0.8,9.2
	c3.4,3.3,9.2,4.4,13.9,9c1.9,1.5,2.3,4.2,0.8,6.2c-0.3,0.4-0.8,0.8-1.3,1.1c-2.9,1.4-6.2,1.5-9.2,0.5c-1.9-0.8-3.6-2.2-4.8-4
	c-0.7-1.8-2.5-2.9-4.4-2.7c0.7,3.9,3.5,7.2,7.3,8.4c4.9,2,10.5,1.5,15-1.4c5.3-3.6,4-10.4-3.6-14.4"/>
<rect x="378.5" y="213.1" width="4" height="30.6"/>
</svg>
